# xmcd CD database file
#
# Track frame offsets:
#	150
#	4995
#	25697
#	45647
#	70850
#	93872
#	124397
#	140782
#	157770
#	178622
#	198722
#	217922
#
# Disc length: 3181 seconds
#
# Revision: 0
# Processed by: cddbd v1.5PL3 Copyright (c) Steve Scherf et al.
# Submitted via: CDex 1.51
#
DISCID=a30c6b0c
DTITLE=RIOT - Sons Of Society
DYEAR=1999
DGENRE=Hard Rock
TTITLE0=Snake Chamer
TTITLE1=On The Wings Of Life
TTITLE2=Sons Of Society
TTITLE3=Twist Of Fate
TTITLE4=Bad Machine
TTITLE5=Cover Me
TTITLE6=Dragon Fire
TTITLE7=The Law
TTITLE8=Time To Bleed
TTITLE9=Queen
TTITLE10=Somewhere
TTITLE11=Promises
EXTD=YEAR: 1999
EXTT0=
EXTT1=
EXTT2=
EXTT3=
EXTT4=
EXTT5=
EXTT6=
EXTT7=
EXTT8=
EXTT9=
EXTT10=
EXTT11=
PLAYORDER=
